<?xml version="1.0" encoding="UTF-8" standalone="no" ?>
<!DOCTYPE svg PUBLIC "-//W3C//DTD SVG 1.1//EN" "http://www.w3.org/Graphics/SVG/1.1/DTD/svg11.dtd">
<svg xmlns="http://www.w3.org/2000/svg" xmlns:xlink="http://www.w3.org/1999/xlink" version="1.1" width="400" height="400" viewBox="0 0 400 400" xml:space="preserve">
<desc>Created with Fabric.js 3.6.2</desc>
<defs>
</defs>
<g transform="matrix(10 0 0 10 200 200)" id="Shape"  >
<path style="stroke: none; stroke-width: 1; stroke-dasharray: none; stroke-linecap: butt; stroke-dashoffset: 0; stroke-linejoin: miter; stroke-miterlimit: 4; fill: rgb(255,255,255); fill-rule: evenodd; opacity: 1;"  transform=" translate(-10, -9)" d="M 0 14.2 L 0 18 L 3.8 18 L 14.8 6.9 L 11 3.1 L 0 14.2 L 0 14.2 Z M 17.7 4 C 18.1 3.6 18.1 3 17.7 2.6 L 15.4 0.3 C 15 -0.1 14.4 -0.1 14 0.3 L 12.2 2.1 L 16 5.9 L 17.7 4 L 17.7 4 Z M 9 16 L 7 18 L 20 18 L 20 16 L 9 16 L 9 16 Z" stroke-linecap="round" />
</g>
</svg>